<?xml version="1.0" encoding="UTF-8"?>
<svg xmlns="http://www.w3.org/2000/svg" version="1.1" viewBox="0 0 383.1 163.2">
  <defs>
    <style>
      .cls-1 {
        fill: #fff;
      }
    </style>
  </defs>
  <!-- Generator: Adobe Illustrator 28.7.1, SVG Export Plug-In . SVG Version: 1.2.0 Build 142)  -->
  <g>
    <g id="Layer_1">
      <g id="Group_1">
        <g id="Group_4320">
          <path id="Path_598" class="cls-1" d="M61.7,47.5c.6,0,1.2.3,1.3,1,0,.1,0,.2,0,.3v38c0,.7-.2,1.1-.7,1.1-.1,0-.2,0-.3,0-.5-.1-1-.3-1.5-.6l-13.6-8.8c-.5-.3-.7-.2-.7.3,0,1.5,0,2.7,0,3.7v3.7c0,.7-.4,1.4-1.2,1.5-.1,0-.3,0-.4,0h-10c-.6,0-1.2-.3-1.3-.9,0-.1,0-.2,0-.3v-37.8c0-.8.3-1.2,1-1.1.5,0,.9.2,1.3.4l13.3,9.1c.2.2.5.3.8.3.3,0,.5-.3.5-.9v-7.6c0-.9.5-1.3,1.5-1.3,1.9,0,3.5,0,5,0h5Z"/>
          <path id="Path_599" class="cls-1" d="M99.5,49.3l18.6,36.9c.1.2.2.4.2.6,0,.6-.6.9-1.8.9h-8c-.6,0-1.2,0-1.8-.2-.5-.3-.8-.8-1.1-1.3-.5-1.1-1.7-1.7-2.9-1.6-2.5,0-4.6,0-6.5,0h-6.5c-1.1,0-2.1.5-2.5,1.5-.2.5-.5,1-.9,1.4-.6.2-1.2.3-1.8.2h-4.1c-.9,0-2.3,0-4.1,0-1.2,0-1.9-.3-1.9-.9,0-.3,0-.5.2-.7l18.5-36.8c.8-1.7,2.9-2.5,4.6-1.7.7.3,1.3.9,1.7,1.7h0ZM98.3,71.9c-.3-.6-.8-1.5-1.4-2.8-.1-.2-.3-.3-.5-.3-.2,0-.4.1-.5.3-.3.6-.8,1.6-1.4,2.8-.2.5,0,.8.4.8h3.2c.2,0,.4-.1.4-.3,0,0,0,0,0,0,0-.2,0-.4,0-.5Z"/>
          <path id="Path_600" class="cls-1" d="M141.3,47.4c.6,0,1.2.3,1.3,1,0,.1,0,.2,0,.3v23.9c0,.8.2,1.7.4,2.5.3.8,1.2,1.2,2,1.1,1.1.1,2-.7,2.1-1.7,0,0,0,0,0,0l.3-1.8v-23.9c0-.3.2-.6.4-.9.2-.3.5-.4.9-.4h10.2c.3,0,.6.2.9.4.2.2.4.5.4.9v24c0,4-1.6,7.8-4.5,10.5-5.9,5.9-15.4,5.9-21.3,0-2.9-2.8-4.5-6.6-4.5-10.6v-24c0-.6.3-1.2,1-1.3.1,0,.2,0,.3,0h10.2Z"/>
          <path id="Path_601" class="cls-1" d="M173.2,47.6h27.4c1,0,1.6.4,1.6,1.2v9.6c0,.8-.5,1.2-1.6,1.2h-6.2c-.7,0-1.1.4-1.1,1.2v25.6c0,.6-.3,1.2-1,1.3-.1,0-.2,0-.3,0h-10.2c-.6,0-1.2-.3-1.3-1,0-.1,0-.2,0-.3v-25.6c0-.8-.4-1.2-1.1-1.2h-6.2c-1,0-1.6-.4-1.6-1.2v-9.6c0-.8.5-1.2,1.6-1.2Z"/>
          <path id="Path_602" class="cls-1" d="M225.1,47.5c.6,0,1.2.3,1.3,1,0,.1,0,.2,0,.3v37.6c0,.6-.3,1.2-1,1.3-.1,0-.2,0-.3,0h-10.2c-.6,0-1.2-.3-1.3-1,0-.1,0-.2,0-.3v-37.6c0-.6.3-1.2,1-1.3.1,0,.2,0,.3,0h10.2Z"/>
          <path id="Path_603" class="cls-1" d="M249.4,47.5c.6,0,1.2.3,1.3,1,0,.1,0,.2,0,.3v24.8c0,.9.4,1.3,1.2,1.3h10.6c.6,0,1.2.3,1.3,1,0,.1,0,.2,0,.3v10.2c0,.6-.3,1.2-1,1.3-.1,0-.2,0-.3,0h-23.3c-.6,0-1.2-.3-1.3-.9,0-.1,0-.2,0-.3v-37.6c0-.6.4-1.2,1-1.3.1,0,.2,0,.3,0h10.2Z"/>
          <path id="Path_604" class="cls-1" d="M286.7,47.4c.6,0,1.2.3,1.3,1,0,.1,0,.2,0,.3v23.9c0,.8.2,1.7.4,2.5.3.8,1.2,1.2,2,1.1,1.1.1,2-.7,2.1-1.7,0,0,0,0,0,0l.3-1.8v-23.9c0-.3.2-.6.4-.9.2-.3.5-.4.9-.4h10.2c.3,0,.6.2.9.4.2.2.4.5.4.9v24c0,4-1.6,7.8-4.5,10.5-5.9,5.9-15.4,5.9-21.3,0-2.9-2.8-4.5-6.6-4.5-10.6v-24c0-.6.3-1.2,1-1.3.1,0,.2,0,.3,0h10.2Z"/>
          <path id="Path_605" class="cls-1" d="M346.1,68c2.5,1.8,4,4.7,4,7.8,0,3.7-1.9,6.7-5.7,9-3.3,2-7,3-10.8,2.9-2.7,0-5.5-.5-8-1.5-2.6-.9-4.8-2.6-6.5-4.8-.3-.3-.3-.8-.1-1.1.2-.3.5-.6.8-.8l8.9-4.2c.8-.2,1.6-.1,2.3.2.8.4,1.7.6,2.6.7.8,0,1.6-.1,2.3-.4,1-.4,1.5-.9,1.5-1.6,0-1.4-1.3-2-3.8-2-1.5,0-3-.1-4.5-.4-3-.6-5.7-1.9-8-3.9-2.5-2-3.9-4.9-4-8.1,0-3.8,1.9-6.9,5.6-9.3,3.3-2.1,7.1-3.2,10.9-3.1,3.1,0,6.1.6,8.9,1.9,2.8,1.2,5.2,3.3,6.6,6.1.1.2.2.5.2.8,0,.6-.4.9-1.2,1.1l-9.4,3.5c-.7.3-1.2.3-1.4.1l-.8-.6c-.9-.5-1.9-.8-2.9-.8-.8,0-1.6.1-2.3.4-1,.4-1.5.9-1.5,1.6,0,.7.5,1.2,1.5,1.6.7.3,1.5.4,2.3.4,2.2,0,4.5.5,6.6,1.2,2.2.6,4.2,1.7,6,3Z"/>
        </g>
        <g id="Group_4321">
          <path id="Path_606" class="cls-1" d="M42.5,110.5c0,1.2-.2,2.3-.6,3.4-.5,1.4-1.3,2-2.3,2h-6v-1.5h4.7c.7,0,1.2-.4,1.5-1.3.3-.7.4-1.5.4-2.3,0-.9-.1-1.7-.5-2.5-.4-.4-.9-.7-1.5-.7h-2.3c-1,0-1.9-.7-2.2-1.8-.4-1-.6-2.1-.6-3.2,0-1.1.2-2.2.6-3.2.5-1.2,1.3-1.8,2.2-1.8h5.4v1.5h-4.1c-.7,0-1.2.5-1.4,1.1-.3.6-.4,1.3-.4,2,0,.7.1,1.4.4,2,.2.6.7,1.1,1.4,1.1h2.6c.9,0,1.7.6,2.2,1.8.4,1,.6,2.1.5,3.1Z"/>
          <path id="Path_607" class="cls-1" d="M88.6,115.9h-2.5v-8.4h-5.1v8.4h-2.5v-18.2h2.5v8.3h5.1v-8.3h2.5v18.2Z"/>
          <path id="Path_608" class="cls-1" d="M127,115.9h-2.5v-18.2h2.5v18.2Z"/>
          <path id="Path_609" class="cls-1" d="M172.7,103.3c0,1.2-.2,2.3-.5,3.4-.5,1.3-1.2,2-2.2,2h-3.6v-1.5h2.3c.6,0,1.1-.5,1.4-1.5.2-.8.4-1.6.3-2.4,0-.8-.1-1.6-.3-2.4-.3-1-.8-1.5-1.4-1.5h-3.2v16.7h-2.5v-18.2h7.1c1,0,1.7.7,2.2,2.1.4,1.1.6,2.3.5,3.5Z"/>
          <path id="Path_610" class="cls-1" d="M218.5,103.3c0,1.2-.2,2.3-.5,3.4-.5,1.3-1.2,2-2.2,2h-3.6v-1.5h2.3c.6,0,1.1-.5,1.4-1.5.2-.8.4-1.6.3-2.4,0-.8-.1-1.6-.3-2.4-.3-1-.8-1.5-1.4-1.5h-3.3v16.7h-2.5v-18.2h7.1c1,0,1.7.7,2.2,2.1.4,1.1.6,2.3.5,3.5Z"/>
          <path id="Path_611" class="cls-1" d="M256.9,115.9h-2.5v-18.2h2.5v18.2Z"/>
          <path id="Path_612" class="cls-1" d="M302.8,115.9h-3.2l-4.9-12.8v12.8h-1.9v-18.2h2.7l5.2,14.3v-14.3h2v18.2Z"/>
          <path id="Path_613" class="cls-1" d="M348.3,115.9h-6.8c-1,0-1.9-.7-2.2-1.7-.4-1-.7-2-.6-3v-8.7c0-1.1.2-2.1.6-3.1.3-1,1.2-1.7,2.2-1.7h5.6v1.5h-4.3c-.6,0-1.1.4-1.4,1.2-.3.7-.4,1.4-.4,2.1v8.7c0,.7.1,1.4.4,2,.3.8.8,1.2,1.4,1.2h3.2v-6.9h-3.6v-1.5h5.9v9.9Z"/>
        </g>
      </g>
    </g>
  </g>
</svg>